<?xml version="1.0" encoding="utf-8"?>
<!-- Generator: Adobe Illustrator 16.0.0, SVG Export Plug-In . SVG Version: 6.00 Build 0)  -->
<!DOCTYPE svg PUBLIC "-//W3C//DTD SVG 1.1//EN" "http://www.w3.org/Graphics/SVG/1.1/DTD/svg11.dtd">
<svg version="1.1" id="Layer_1" xmlns="http://www.w3.org/2000/svg" xmlns:xlink="http://www.w3.org/1999/xlink" x="0px" y="0px"
	 width="120px" height="120px" viewBox="0 0 120 120" enable-background="new 0 0 120 120" xml:space="preserve">
<g>
	<path fill="none" stroke="#020202" stroke-width="2" stroke-miterlimit="10" d="M31.5,72V61.324c0-1.462,1.879-1.324,3.342-1.324
		h49.438c1.464,0,2.222-0.138,2.222,1.324V72"/>
	<line fill="none" stroke="#020202" stroke-width="2" stroke-miterlimit="10" x1="59.5" y1="45" x2="59.5" y2="55"/>
	<circle fill="#D0F1FE" stroke="#020202" stroke-miterlimit="10" cx="59.573" cy="58.694" r="3.77"/>
	<path fill="#00A9EE" d="M81.5,31V6.148C81.5,4.687,80.438,4,78.977,4H41.898C40.436,4,38.5,4.687,38.5,6.148V31H81.5z"/>
	<line fill="none" stroke="#000000" stroke-miterlimit="10" x1="38.5" y1="31.5" x2="81.5" y2="31.5"/>
	<line fill="none" stroke="#000000" stroke-width="2" stroke-miterlimit="10" x1="50.5" y1="43" x2="68.5" y2="43"/>
	<line fill="none" stroke="#000000" stroke-width="2" stroke-miterlimit="10" x1="65.5" y1="36" x2="65.5" y2="43"/>
	<line fill="none" stroke="#000000" stroke-width="2" stroke-miterlimit="10" x1="52.5" y1="36" x2="52.5" y2="43"/>
	<path fill="none" stroke="#000000" stroke-width="2" stroke-miterlimit="10" d="M80.5,33.352c0,1.463-1.186,2.648-2.648,2.648
		H41.148c-1.463,0-2.648-1.186-2.648-2.648V6.648C38.5,5.186,39.686,4,41.148,4h36.704C79.314,4,80.5,5.186,80.5,6.648V33.352z"/>
	<path fill="#00A9EE" d="M52.5,106V80.305c0-1.462-0.311-2.305-1.773-2.305H13.648c-1.462,0-3.148,0.843-3.148,2.305V106H52.5z"/>
	<line fill="none" stroke="#000000" stroke-miterlimit="10" x1="10.5" y1="105.5" x2="52.5" y2="105.5"/>
	<line fill="none" stroke="#000000" stroke-width="2" stroke-miterlimit="10" x1="21.5" y1="117" x2="40.5" y2="117"/>
	<line fill="none" stroke="#000000" stroke-width="2" stroke-miterlimit="10" x1="36.5" y1="110" x2="36.5" y2="117"/>
	<line fill="none" stroke="#000000" stroke-width="2" stroke-miterlimit="10" x1="24.5" y1="110" x2="24.5" y2="117"/>
	<path fill="none" stroke="#000000" stroke-width="2" stroke-miterlimit="10" d="M52.5,107.352c0,1.463-1.186,2.648-2.648,2.648
		H13.148c-1.463,0-2.648-1.186-2.648-2.648V80.648c0-1.463,1.186-2.648,2.648-2.648h36.703c1.463,0,2.648,1.186,2.648,2.648
		L52.5,107.352L52.5,107.352z"/>
	<path fill="#00A9EE" d="M108.5,106V80.305c0-1.462-0.693-2.305-2.156-2.305H69.266c-1.461,0-2.766,0.843-2.766,2.305V106H108.5z"/>
	<line fill="none" stroke="#000000" stroke-miterlimit="10" x1="66.5" y1="105.5" x2="108.5" y2="105.5"/>
	<line fill="none" stroke="#000000" stroke-width="2" stroke-miterlimit="10" x1="77.5" y1="117" x2="96.5" y2="117"/>
	<line fill="none" stroke="#000000" stroke-width="2" stroke-miterlimit="10" x1="92.5" y1="110" x2="92.5" y2="117"/>
	<line fill="none" stroke="#000000" stroke-width="2" stroke-miterlimit="10" x1="80.5" y1="110" x2="80.5" y2="117"/>
	<path fill="none" stroke="#000000" stroke-width="2" stroke-miterlimit="10" d="M108.5,107.352c0,1.463-1.186,2.648-2.648,2.648
		H69.148c-1.463,0-2.648-1.186-2.648-2.648V80.648c0-1.463,1.186-2.648,2.648-2.648h36.703c1.463,0,2.647,1.186,2.647,2.648
		L108.5,107.352L108.5,107.352z"/>
</g>
</svg>
