<?xml version="1.0" encoding="utf-8"?>
<!-- Generator: Adobe Illustrator 16.0.0, SVG Export Plug-In . SVG Version: 6.00 Build 0)  -->
<!DOCTYPE svg PUBLIC "-//W3C//DTD SVG 1.1//EN" "http://www.w3.org/Graphics/SVG/1.1/DTD/svg11.dtd">
<svg version="1.1" id="Layer_1" xmlns="http://www.w3.org/2000/svg" xmlns:xlink="http://www.w3.org/1999/xlink" x="0px" y="0px"
	 width="120px" height="120px" viewBox="0 0 120 120" enable-background="new 0 0 120 120" xml:space="preserve">
<g>
	<g>
		<path fill="#D0F1FE" d="M60.016,88.597c3.24,0,30.268-33.573,30.268-50.29c0-16.716-13.551-30.269-30.268-30.269
			c-16.718,0-30.269,13.553-30.269,30.269C29.747,55.024,56.895,88.597,60.016,88.597z M40.464,37.246
			c0-10.797,8.753-19.55,19.551-19.55c10.797,0,19.55,8.752,19.55,19.55c0,10.798-8.753,19.551-19.55,19.551
			C49.218,56.797,40.464,48.044,40.464,37.246z"/>
		<path d="M113.771,65.465c0-2.789-2.268-5.057-5.055-5.057c0,0-13.496,0-18.436,0c-0.384,0-0.826-0.021-1.315,0.797
			c-0.971,1.633-0.887,1.488-1.8,3c-0.423,0.703,0.219,0.942,0.484,0.942c5.901,0,21.067,0,21.067,0
			c0.167,0,0.315,0.147,0.315,0.315l4.743,41.541c0,0.17-0.149,0.318-0.318,0.318H6.574c-0.17,0-0.317-0.148-0.317-0.318
			l4.74-41.539c0-0.17,0.148-0.317,0.318-0.317c0,0,15.677,0,20.903,0c0.43,0,1.112-0.251,0.337-1.513
			c-0.91-1.48-0.557-1.048-1.521-2.686c-0.359-0.609-0.857-0.542-1.53-0.542c-4.547,0-18.189,0-18.189,0
			c-2.788,0-5.056,2.268-5.056,5.056l-4.742,41.54c0,2.791,2.268,5.056,5.056,5.056h106.884c2.789,0,5.056-2.265,5.056-5.056
			L113.771,65.465z"/>
	</g>
</g>
</svg>
